<svg width="400" height="567.52171" xmlns="http://www.w3.org/2000/svg">
 <title>Artificial intelligence</title>

 <g>
  <title>background</title>
  <rect fill="none" id="canvas_background" height="569.52171" width="402" y="-1" x="-1"/>
 </g>
 <g>
  <title>Layer 1</title>
  <rect id="svg_62" fill="#5fd9fa" rx="12.9697" height="107.59858" width="232.00944" y="130.74154" x="84.90507"/>
  <rect id="svg_63" opacity="0.1" height="2.01747" width="195.02243" y="221.82608" x="103.39858"/>
  <rect id="svg_64" opacity="0.3" height="73.97403" width="195.02243" y="147.55382" x="103.39858"/>
  <circle id="svg_65" opacity="0.1" r="26.899651" cy="186.08463" cx="148.79173"/>
  <circle id="svg_66" opacity="0.1" r="26.899651" cy="186.08463" cx="253.02786"/>
  <rect id="svg_67" fill="#5fd9fa" height="23.54304" width="40.34738" y="238.33709" x="180.73376"/>
  <rect id="svg_68" fill="#5fd9fa" height="134.49823" width="168.12279" y="255.1524" x="116.8484"/>
  <rect id="svg_69" fill="#5fd9fa" height="16.81228" width="174.8477" y="416.55027" x="113.48595"/>
  <polygon id="svg_70" fill="#5fd9fa" points="142.06698608398438,473.71197509765625 142.06698608398438,493.88702392578125 142.06698608398438,524.1489868164062 142.06698608398438,540.9609985351562 142.06698608398438,551.0479736328125 172.32901000976562,551.0479736328125 172.32901000976562,540.9609985351562 172.32901000976562,524.1489868164062 172.32901000976562,493.88702392578125 172.32901000976562,473.71197509765625 172.32901000976562,450.17498779296875 142.06698608398438,450.17498779296875 142.06698608398438,473.71197509765625 "/>
  <polygon id="svg_71" fill="#5fd9fa" points="232.85302734375,450.17498779296875 232.85302734375,473.71197509765625 232.85302734375,493.88702392578125 232.85302734375,524.1489868164062 232.85302734375,540.9609985351562 232.85302734375,551.0479736328125 263.114990234375,551.0479736328125 263.114990234375,540.9609985351562 263.114990234375,524.1489868164062 263.114990234375,493.88702392578125 263.114990234375,473.71197509765625 263.114990234375,450.17498779296875 232.85302734375,450.17498779296875 "/>
  <path id="svg_72" fill="#5fd9fa" d="m93.948733,285.415439l0,31.1a45.48981,45.48981 0 0 0 -22.35428,10.77578a52.88313,52.88313 0 0 0 -13.30766,19.51363c-3.89037,9.42495 -5.78154,19.892 -6.55344,29.78775a170.31725,170.31725 0 0 0 1.86031,39.96138l-33.62408,0c-1.42805,-18.58739 -0.9726,-34.53493 0.87994,-48.22848c2.07642,-15.438 5.92052,-28.00461 10.79123,-38.22464c9.74141,-20.43225 23.59708,-31.51676 35.76995,-37.5376c14.45778,-7.14782 26.53803,-7.14782 26.53803,-7.14782z"/>
  <rect id="svg_73" opacity="0.3" height="23.53719" width="30.2621" y="450.17483" x="142.06682"/>
  <rect id="svg_74" opacity="0.3" height="30.2621" width="30.2621" y="493.88675" x="142.06682"/>
  <rect id="svg_75" opacity="0.3" height="10.08737" width="30.2621" y="540.96113" x="142.06682"/>
  <rect id="svg_76" opacity="0.3" height="23.53719" width="30.2621" y="450.17483" x="232.85313"/>
  <rect id="svg_77" opacity="0.3" height="30.2621" width="30.2621" y="493.88675" x="232.85313"/>
  <rect id="svg_78" opacity="0.3" height="10.08737" width="30.2621" y="540.96113" x="232.85313"/>
  <path id="svg_79" opacity="0.3" d="m93.948733,285.415439l0,31.1a45.48981,45.48981 0 0 0 -22.35428,10.77578l-4.18375,-34.72791c14.45778,-7.14787 26.53803,-7.14787 26.53803,-7.14787z"/>
  <path id="svg_80" opacity="0.3" d="m58.286793,346.804849c-3.89037,9.42495 -5.78154,19.892 -6.55344,29.78775l-30.88384,-8.2671c2.07642,-15.438 5.92052,-28.00461 10.79123,-38.22464l26.64605,16.70399z"/>
  <path id="svg_81" fill="#5fd9fa" d="m307.870873,285.415439l0,31.1a45.48981,45.48981 0 0 1 22.35428,10.77578a52.883,52.883 0 0 1 13.30764,19.51363c3.89038,9.42495 5.78155,19.892 6.55345,29.78775a170.31788,170.31788 0 0 1 -1.86031,39.96138l33.62409,0c1.428,-18.58739 0.9726,-34.53493 -0.87994,-48.22848c-2.07642,-15.438 -5.92053,-28.00461 -10.79123,-38.22464c-9.74141,-20.43225 -23.59708,-31.51676 -35.76995,-37.5376c-14.45778,-7.14782 -26.53803,-7.14782 -26.53803,-7.14782z"/>
  <path id="svg_82" opacity="0.3" d="m307.870873,285.415439l0,31.1a45.48981,45.48981 0 0 1 22.35428,10.77578l4.18375,-34.72791c-14.45778,-7.14787 -26.53803,-7.14787 -26.53803,-7.14787z"/>
  <path id="svg_83" opacity="0.3" d="m343.532793,346.804849c3.89038,9.42495 5.78155,19.892 6.55345,29.78775l30.88384,-8.2671c-2.07642,-15.438 -5.92053,-28.00461 -10.79123,-38.22464l-26.64606,16.70399z"/>
  <rect id="svg_84" opacity="0.1" height="2.78656" width="40.34738" y="238.33709" x="180.73376"/>
  <path id="svg_85" opacity="0.1" d="m287.958793,279.116679l0,56.31033a11.73265,11.73265 0 0 1 -3.1262,-7.9815l0,-40.35506a11.71348,11.71348 0 0 1 3.1262,-7.97377z"/>
  <path id="svg_86" opacity="0.1" d="m117.445453,282.829529l0,42.15365a11.721,11.721 0 0 1 -3.13392,7.13238l0,-56.4184a11.721,11.721 0 0 1 3.13392,7.13237z"/>
  <rect id="svg_87" opacity="0.1" height="1.99152" width="151.30842" y="389.65319" x="125.2571"/>
  <rect id="svg_88" opacity="0.1" height="1.54381" width="73.97147" y="433.36605" x="121.89162"/>
  <rect id="svg_89" opacity="0.1" height="1.54381" width="73.97147" y="433.36605" x="202.59405"/>
  <rect id="svg_90" fill="#5fd9fa" height="99.57547" width="11.57854" y="31.16607" x="130.14326"/>
  <rect id="svg_91" fill="#5fd9fa" height="99.57547" width="11.57854" y="31.16607" x="262.91056"/>
  <circle id="svg_92" opacity="0.1" r="13.12235" cy="31.93797" cx="135.54658"/>
  <circle id="svg_93" fill="#5fd9fa" r="13.12235" cy="31.16607" cx="135.54658"/>
  <circle id="svg_94" opacity="0.1" r="13.12235" cy="31.93797" cx="269.08578"/>
  <circle id="svg_95" fill="#5fd9fa" r="13.12235" cy="31.16607" cx="269.08578"/>
 </g>
</svg>