<svg width="1028.53157" height="752.52171" xmlns="http://www.w3.org/2000/svg" xmlns:svg="http://www.w3.org/2000/svg">
 <title>Artificial intelligence</title>
 <g>
  <title>Layer 1</title>
  <rect id="svg_62" fill="#5fd9fa" rx="12.9697" height="107.59858" width="232.00944" y="264.74154" x="377.90507"/>
  <rect id="svg_63" opacity="0.1" height="2.01747" width="195.02243" y="355.82608" x="396.39858"/>
  <rect id="svg_64" opacity="0.3" height="73.97403" width="195.02243" y="281.55382" x="396.39858"/>
  <circle id="svg_65" opacity="0.1" r="26.89965" cy="320.08463" cx="441.79173"/>
  <circle id="svg_66" opacity="0.1" r="26.89965" cy="320.08463" cx="546.02786"/>
  <rect id="svg_67" fill="#5fd9fa" height="23.54304" width="40.34738" y="372.33709" x="473.73376"/>
  <rect id="svg_68" fill="#5fd9fa" height="134.49823" width="168.12279" y="389.1524" x="409.8484"/>
  <rect id="svg_69" fill="#5fd9fa" height="16.81228" width="174.8477" y="550.55027" x="406.48595"/>
  <polygon id="svg_70" fill="#5fd9fa" points="435.067 607.712 435.067 627.887 435.067 658.149 435.067 674.961 435.067 685.048 465.329 685.048 465.329 674.961 465.329 658.149 465.329 627.887 465.329 607.712 465.329 584.175 435.067 584.175 435.067 607.712"/>
  <polygon id="svg_71" fill="#5fd9fa" points="525.853 584.175 525.853 607.712 525.853 627.887 525.853 658.149 525.853 674.961 525.853 685.048 556.115 685.048 556.115 674.961 556.115 658.149 556.115 627.887 556.115 607.712 556.115 584.175 525.853 584.175"/>
  <path id="svg_72" fill="#5fd9fa" d="m386.94873,419.41544l0,31.1a45.48981,45.48981 0 0 0 -22.35428,10.77578a52.88313,52.88313 0 0 0 -13.30766,19.51363c-3.89037,9.42495 -5.78154,19.892 -6.55344,29.78775a170.31725,170.31725 0 0 0 1.86031,39.96138l-33.62408,0c-1.42805,-18.58739 -0.9726,-34.53493 0.87994,-48.22848c2.07642,-15.438 5.92052,-28.00461 10.79123,-38.22464c9.74141,-20.43225 23.59708,-31.51676 35.76995,-37.5376c14.45778,-7.14782 26.53803,-7.14782 26.53803,-7.14782z"/>
  <rect id="svg_73" opacity="0.3" height="23.53719" width="30.2621" y="584.17483" x="435.06682"/>
  <rect id="svg_74" opacity="0.3" height="30.2621" width="30.2621" y="627.88675" x="435.06682"/>
  <rect id="svg_75" opacity="0.3" height="10.08737" width="30.2621" y="674.96113" x="435.06682"/>
  <rect id="svg_76" opacity="0.3" height="23.53719" width="30.2621" y="584.17483" x="525.85313"/>
  <rect id="svg_77" opacity="0.3" height="30.2621" width="30.2621" y="627.88675" x="525.85313"/>
  <rect id="svg_78" opacity="0.3" height="10.08737" width="30.2621" y="674.96113" x="525.85313"/>
  <path id="svg_79" opacity="0.3" d="m386.94873,419.41544l0,31.1a45.48981,45.48981 0 0 0 -22.35428,10.77578l-4.18375,-34.72791c14.45778,-7.14787 26.53803,-7.14787 26.53803,-7.14787z"/>
  <path id="svg_80" opacity="0.3" d="m351.28679,480.80485c-3.89037,9.42495 -5.78154,19.892 -6.55344,29.78775l-30.88384,-8.2671c2.07642,-15.438 5.92052,-28.00461 10.79123,-38.22464l26.64605,16.70399z"/>
  <path id="svg_81" fill="#5fd9fa" d="m600.87087,419.41544l0,31.1a45.48981,45.48981 0 0 1 22.35428,10.77578a52.883,52.883 0 0 1 13.30764,19.51363c3.89038,9.42495 5.78155,19.892 6.55345,29.78775a170.31788,170.31788 0 0 1 -1.86031,39.96138l33.62409,0c1.428,-18.58739 0.9726,-34.53493 -0.87994,-48.22848c-2.07642,-15.438 -5.92053,-28.00461 -10.79123,-38.22464c-9.74141,-20.43225 -23.59708,-31.51676 -35.76995,-37.5376c-14.45778,-7.14782 -26.53803,-7.14782 -26.53803,-7.14782z"/>
  <path id="svg_82" opacity="0.3" d="m600.87087,419.41544l0,31.1a45.48981,45.48981 0 0 1 22.35428,10.77578l4.18375,-34.72791c-14.45778,-7.14787 -26.53803,-7.14787 -26.53803,-7.14787z"/>
  <path id="svg_83" opacity="0.3" d="m636.53279,480.80485c3.89038,9.42495 5.78155,19.892 6.55345,29.78775l30.88384,-8.2671c-2.07642,-15.438 -5.92053,-28.00461 -10.79123,-38.22464l-26.64606,16.70399z"/>
  <rect id="svg_84" opacity="0.1" height="2.78656" width="40.34738" y="372.33709" x="473.73376"/>
  <path id="svg_85" opacity="0.1" d="m580.95879,413.11668l0,56.31033a11.73265,11.73265 0 0 1 -3.1262,-7.9815l0,-40.35506a11.71348,11.71348 0 0 1 3.1262,-7.97377z"/>
  <path id="svg_86" opacity="0.1" d="m410.44545,416.82953l0,42.15365a11.721,11.721 0 0 1 -3.13392,7.13238l0,-56.4184a11.721,11.721 0 0 1 3.13392,7.13237z"/>
  <rect id="svg_87" opacity="0.1" height="1.99152" width="151.30842" y="523.65319" x="418.2571"/>
  <rect id="svg_88" opacity="0.1" height="1.54381" width="73.97147" y="567.36605" x="414.89162"/>
  <rect id="svg_89" opacity="0.1" height="1.54381" width="73.97147" y="567.36605" x="495.59405"/>
  <rect id="svg_90" fill="#5fd9fa" height="99.57547" width="11.57854" y="165.16607" x="423.14326"/>
  <rect id="svg_91" fill="#5fd9fa" height="99.57547" width="11.57854" y="165.16607" x="555.91056"/>
  <circle id="svg_92" opacity="0.1" r="13.12235" cy="165.93797" cx="428.54658"/>
  <circle id="svg_93" fill="#5fd9fa" r="13.12235" cy="165.16607" cx="428.54658"/>
  <circle id="svg_94" opacity="0.1" r="13.12235" cy="165.93797" cx="562.08578"/>
  <circle id="svg_95" fill="#5fd9fa" r="13.12235" cy="165.16607" cx="562.08578"/>
 </g>
</svg>